<svg width="23" height="23" xmlns="http://www.w3.org/2000/svg" xmlns:xlink="http://www.w3.org/1999/xlink" overflow="hidden"><defs><clipPath id="clip0"><rect x="348" y="92" width="23" height="23"/></clipPath></defs><g clip-path="url(#clip0)" transform="translate(-348 -92)"><path d="M368.484 110.113 365.49 107.118C365.082 106.71 364.531 106.567 364.004 106.662L362.95 105.608C363.884 104.41 364.435 102.877 364.435 101.248 364.435 97.2948 361.201 94.0604 357.248 94.0604 353.295 94.0604 350.06 97.2948 350.06 101.248 350.06 105.201 353.295 108.435 357.248 108.435 358.877 108.435 360.386 107.884 361.608 106.95L362.663 108.004C362.567 108.531 362.71 109.082 363.118 109.49L366.112 112.484C366.448 112.82 366.879 112.988 367.31 112.988 367.742 112.988 368.173 112.82 368.508 112.484 369.131 111.814 369.131 110.759 368.484 110.113ZM357.224 106.974C354.061 106.974 351.474 104.386 351.474 101.224 351.474 98.0615 354.061 95.474 357.224 95.474 360.386 95.474 362.974 98.0615 362.974 101.224 362.974 104.386 360.386 106.974 357.224 106.974Z" fill="#D9B5E1"/></g></svg>